<?xml version="1.0" standalone="no"?>
<!DOCTYPE svg PUBLIC "-//W3C//DTD SVG 20010904//EN"
 "http://www.w3.org/TR/2001/REC-SVG-20010904/DTD/svg10.dtd">
<svg version="1.0" xmlns="http://www.w3.org/2000/svg"
 width="500.000000pt" height="500.000000pt" viewBox="0 0 500.000000 500.000000"
 preserveAspectRatio="xMidYMid meet">

<g transform="translate(0.000000,500.000000) scale(0.100000,-0.100000)"
fill="#000000" stroke="none">
<path d="M2133 3117 l-723 -442 0 -52 c0 -29 2 -53 5 -53 3 0 204 122 447 270
l443 271 3 -506 2 -505 345 0 345 0 0 359 0 358 -62 34 c-205 110 -548 304
-547 309 0 3 105 69 234 147 l235 143 361 -210 c199 -116 363 -210 365 -210 2
0 4 26 4 58 l0 57 -358 208 c-197 114 -363 207 -368 206 -5 0 -334 -199 -731
-442z"/>
<path d="M1270 1850 c0 -91 3 -110 15 -110 11 0 15 12 15 45 l0 45 60 0 60 0
0 -45 c0 -38 3 -45 20 -45 19 0 20 7 20 110 0 103 -1 110 -20 110 -17 0 -20
-7 -20 -45 l0 -45 -60 0 -60 0 0 45 c0 33 -4 45 -15 45 -12 0 -15 -19 -15
-110z"/>
<path d="M1573 1888 c-17 -40 -38 -90 -47 -110 -15 -36 -15 -38 2 -38 10 0 24
11 30 25 10 22 18 25 67 25 49 0 57 -3 67 -25 10 -22 55 -38 46 -17 -71 173
-92 212 -113 212 -17 0 -27 -15 -52 -72z m87 -55 c0 -8 -14 -13 -35 -13 -41 0
-44 11 -18 66 l18 36 17 -38 c10 -22 18 -45 18 -51z"/>
<path d="M1790 1850 c0 -89 3 -110 14 -110 9 0 16 12 18 33 3 31 5 32 57 37
61 7 81 25 81 77 0 53 -28 73 -105 73 l-65 0 0 -110z m121 70 c46 -25 10 -80
-52 -80 l-39 0 0 45 c0 45 0 45 36 45 19 0 44 -5 55 -10z"/>
<path d="M2020 1850 c0 -89 3 -110 14 -110 9 0 16 12 18 33 3 31 5 32 57 37
61 7 81 25 81 77 0 53 -28 73 -105 73 l-65 0 0 -110z m121 70 c46 -25 10 -80
-52 -80 l-39 0 0 45 c0 45 0 45 36 45 19 0 44 -5 55 -10z"/>
<path d="M2230 1953 c0 -3 16 -34 35 -69 24 -43 35 -75 35 -103 0 -34 3 -41
20 -41 16 0 20 7 20 37 0 24 14 62 40 110 36 66 39 73 21 73 -13 0 -29 -16
-47 -50 -15 -27 -30 -50 -33 -50 -3 0 -18 23 -33 50 -16 28 -35 50 -43 50 -8
0 -15 -3 -15 -7z"/>
<path d="M2570 1850 c0 -91 3 -110 15 -110 11 0 15 12 15 45 l0 45 60 0 60 0
0 -45 c0 -38 3 -45 20 -45 19 0 20 7 20 110 0 103 -1 110 -20 110 -17 0 -20
-7 -20 -45 l0 -45 -60 0 -60 0 0 45 c0 33 -4 45 -15 45 -12 0 -15 -19 -15
-110z"/>
<path d="M2868 1943 c-79 -50 -55 -181 38 -199 47 -9 81 2 115 36 43 42 41
100 -5 146 -28 28 -41 34 -77 34 -24 0 -56 -8 -71 -17z m119 -35 c33 -31 32
-90 -3 -117 -37 -29 -70 -26 -105 8 -31 32 -35 50 -17 84 27 51 85 63 125 25z"/>
<path d="M3101 1874 c4 -79 6 -87 32 -110 30 -26 83 -32 119 -13 30 16 48 70
48 144 0 58 -2 65 -20 65 -18 0 -20 -7 -20 -75 0 -62 -4 -79 -20 -95 -24 -24
-48 -25 -78 -4 -20 13 -22 24 -22 95 0 74 -1 79 -21 79 -20 0 -21 -4 -18 -86z"/>
<path d="M3382 1944 c-22 -15 -29 -48 -14 -72 5 -7 31 -21 58 -31 56 -21 68
-45 31 -62 -20 -9 -32 -8 -57 5 -32 15 -50 14 -50 -4 0 -5 13 -16 30 -25 65
-33 139 -6 140 51 0 27 -21 44 -74 64 -29 11 -41 21 -41 35 0 24 43 32 75 15
16 -9 22 -8 27 6 3 9 0 20 -8 25 -23 14 -93 10 -117 -7z"/>
<path d="M3580 1850 l0 -110 80 0 c64 0 80 3 80 15 0 12 -13 15 -60 15 l-60 0
0 35 0 35 55 0 c42 0 55 3 55 15 0 12 -13 15 -55 15 -54 0 -55 0 -55 30 l0 30
60 0 c47 0 60 3 60 15 0 12 -16 15 -80 15 l-80 0 0 -110z"/>
</g>
</svg>
